<svg xmlns="http://www.w3.org/2000/svg" viewBox="0 0 900 700" role="img" aria-labelledby="title desc">
  <title id="title">New construction custom home electrical rough-in</title>
  <desc id="desc">Illustration of a large new construction home frame with electrical wires running through open walls</desc>
  <rect width="900" height="700" rx="28" fill="#e8ddca"/>
  <circle cx="720" cy="122" r="64" fill="#f7f1e7" opacity="0.85"/>
  <path d="M0 470 C160 422 250 498 390 450 C510 410 630 428 900 380 V700 H0 Z" fill="#a8ae91" opacity="0.55"/>
  <path d="M92 456 H816" stroke="#344236" stroke-width="16" stroke-linecap="round"/>
  <path d="M152 456 V230 L448 94 L748 230 V456" fill="#f7f1e7" stroke="#344236" stroke-width="15" stroke-linecap="round" stroke-linejoin="round"/>
  <path d="M178 244 H721" stroke="#344236" stroke-width="10" stroke-linecap="round" opacity="0.5"/>
  <path d="M448 94 V456" stroke="#344236" stroke-width="10" stroke-linecap="round" opacity="0.65"/>
  <path d="M252 456 V211 M350 456 V166 M548 456 V166 M646 456 V211" stroke="#344236" stroke-width="10" stroke-linecap="round" opacity="0.65"/>
  <path d="M154 232 L448 96 L748 232" fill="none" stroke="#243027" stroke-width="17" stroke-linecap="round" stroke-linejoin="round"/>
  <path d="M214 305 C318 265 388 340 510 292 C602 256 662 278 718 305" fill="none" stroke="#a56543" stroke-width="9" stroke-linecap="round"/>
  <path d="M198 356 C324 318 426 396 554 348 C640 316 702 334 748 360" fill="none" stroke="#a56543" stroke-width="7" stroke-linecap="round" opacity="0.9"/>
  <rect x="238" y="340" width="52" height="48" rx="6" fill="#fffdf8" stroke="#344236" stroke-width="7"/>
  <rect x="594" y="330" width="52" height="48" rx="6" fill="#fffdf8" stroke="#344236" stroke-width="7"/>
  <path d="M308 456 V374 H386 V456" fill="#d8c6aa" stroke="#344236" stroke-width="9" stroke-linejoin="round"/>
  <path d="M513 456 V376 H638 V456" fill="#d8c6aa" stroke="#344236" stroke-width="9" stroke-linejoin="round"/>
  <path d="M74 516 H832" stroke="#243027" stroke-width="14" stroke-linecap="round"/>
  <path d="M162 560 H738" stroke="#6e7751" stroke-width="10" stroke-linecap="round" opacity="0.7"/>
  <g fill="#344236" opacity="0.42">
    <rect x="190" y="500" width="36" height="100" rx="6"/>
    <rect x="270" y="492" width="36" height="112" rx="6"/>
    <rect x="350" y="505" width="36" height="95" rx="6"/>
    <rect x="430" y="486" width="36" height="118" rx="6"/>
    <rect x="510" y="500" width="36" height="100" rx="6"/>
    <rect x="590" y="492" width="36" height="112" rx="6"/>
    <rect x="670" y="505" width="36" height="95" rx="6"/>
  </g>
</svg>
